<svg width="7686" height="729" version="1.1" xmlns="http://www.w3.org/2000/svg" desc="Created with imagetracer.js version 1.2.6" ><path fill="rgb(0,0,0)" stroke="rgb(0,0,0)" stroke-width="1" opacity="0" d="M 0 0 L 1310 0.5 L 1267.5 3 L 1266.5 4 L 1258.5 4 L 1257.5 5 L 1251.5 5 L 1250.5 6 L 1220.5 10 L 1172.5 22 L 1133.5 36 Q 1058.4 67.4 1007 122.5 Q 966 166 942 226.5 L 930 263.5 L 923 295.5 L 921 315.5 L 920 316.5 L 920 324.5 L 919 325.5 L 918 348 L 937.5 349 L 938.5 350 L 949.5 350 L 950.5 351 L 961.5 351 L 962.5 352 L 972.5 352 L 973.5 353 L 984.5 353 L 985.5 354 L 996.5 354 L 997.5 355 L 1007.5 355 L 1008.5 356 L 1019.5 356 L 1020.5 357 L 1031.5 357 L 1032.5 358 L 1042.5 358 L 1043.5 359 L 1054.5 359 L 1055.5 360 L 1066.5 360 L 1067.5 361 L 1078.5 361 L 1079.5 362 L 1089.5 362 L 1090.5 363 L 1101.5 363 L 1102.5 364 L 1113.5 364 L 1114.5 365 L 1124.5 365 L 1125.5 366 L 1148.5 367 L 1149.5 368 L 1159.5 368 L 1160.5 369 L 1195.5 371 L 1196.5 372 Q 1205.4 370.7 1209 373 L 1211 347.5 Q 1214 330.5 1220 316.5 Q 1229.7 294.2 1246.5 279 Q 1263.8 262.8 1289.5 255 L 1313.5 250 L 1338.5 249 L 1339.5 250 L 1351.5 250 L 1352.5 251 L 1363.5 252 L 1375.5 255 L 1393.5 262 Q 1416 273 1431 291.5 Q 1445.3 308.2 1452 332.5 L 1455 347.5 L 1456 370.5 L 1455 371.5 L 1454 386.5 L 1447 409.5 Q 1437.7 431.7 1421.5 447 Q 1403 465 1375.5 474 L 1359.5 478 L 1344.5 479 L 1343.5 480 L 1320.5 480 L 1319.5 479 L 1311.5 479 L 1310.5 478 L 1299.5 477 L 1272.5 468 Q 1248.7 456.8 1233 437.5 L 1218 413.5 L 1212 396.5 L 1210 381.5 L 1208.5 380 L 918.5 380 L 918 380.5 L 918 390.5 L 919 391.5 L 919 403.5 L 920 404.5 L 921 420.5 L 927 453.5 Q 935.5 490.5 950 521.5 Q 979.2 583.8 1027.5 627 Q 1080 674.5 1153.5 701 Q 1186.7 712.8 1224.5 720 L 1229.5 720 L 1248.5 724 L 1263.5 725 L 1264.5 726 L 1303 728.5 L 0 729 L 0 713.5 L 0.5 713 L 257 713 L 257 355.5 L 258 355.5 L 367 711.5 L 368.5 713 L 525.5 713 L 526 711.5 L 636.5 355 L 637 713 L 894 713 L 894 17 L 578.5 17 L 578 19.5 L 452 363.5 L 446.5 375 L 321 31.5 L 314.5 17 L 0.5 17 L 0 16.5 L 0 0 Z " /><path fill="rgb(0,0,0)" stroke="rgb(0,0,0)" stroke-width="1" opacity="0" d="M 1354.5 0 L 4586 0.5 L 4539.5 2 L 4538.5 3 L 4525.5 3 L 4524.5 4 L 4513.5 4 L 4512.5 5 L 4502.5 5 L 4501.5 6 L 4476.5 8 L 4475.5 9 L 4462.5 10 L 4423.5 17 L 4376.5 29 L 4342.5 41 L 4301.5 61 Q 4273 77.5 4251 100.5 Q 4227.3 124.8 4214 159.5 L 4205 192.5 L 4204 206.5 L 4203 207.5 L 4203 219.5 L 4202 220.5 L 4202 240.5 L 4203 241.5 L 4203 255.5 L 4204 256.5 L 4204 264.5 L 4205 265.5 L 4206 276.5 L 4212 299.5 L 4217 312.5 Q 4231.3 345.2 4255.5 368 Q 4280.5 391.5 4313.5 407 L 4342.5 419 L 4394.5 434 L 4437.5 442 L 4466.5 445 L 4467.5 446 L 4475.5 446 L 4476.5 447 L 4498.5 448 L 4499.5 449 L 4530.5 450 L 4531.5 451 L 4557.5 451 L 4558.5 452 L 4623.5 452 L 4624.5 453 L 4638.5 453 L 4639.5 454 L 4652.5 455 L 4662.5 458 L 4672 464.5 L 4674 467.5 L 4676 476.5 L 4674 485.5 L 4671 490 L 4664.5 494 L 4651.5 498 L 4638.5 499 L 4637.5 500 L 4626.5 500 L 4625.5 501 L 4533.5 501 L 4532.5 500 L 4512.5 500 L 4511.5 499 L 4497.5 499 L 4496.5 498 L 4463.5 496 L 4462.5 495 L 4454.5 495 L 4453.5 494 L 4422.5 491 L 4421.5 490 L 4380.5 484 L 4305.5 467 L 4254.5 452 L 4232.5 444 L 4230 458.5 L 4227 492.5 L 4226 493.5 L 4224 519.5 L 4222 528.5 L 4219 563.5 L 4217 572.5 L 4215 598.5 L 4213 607.5 L 4211 633.5 L 4209 642.5 L 4208 659.5 L 4207 663 L 4239.5 675 L 4282.5 688 L 4326.5 699 L 4370.5 708 L 4375.5 708 L 4400.5 713 L 4406.5 713 L 4413.5 715 L 4419.5 715 L 4420.5 716 L 4427.5 716 L 4428.5 717 L 4443.5 718 L 4452.5 720 L 4460.5 720 L 4461.5 721 L 4480.5 722 L 4481.5 723 L 4518.5 725 L 4519.5 726 L 4534.5 726 L 4535.5 727 L 4583 728.5 L 1362.5 729 L 1362.5 728 L 1389.5 727 L 1390.5 726 L 1399.5 726 L 1400.5 725 L 1407.5 725 L 1408.5 724 L 1415.5 724 L 1416.5 723 L 1434.5 721 L 1482.5 710 L 1521.5 697 Q 1597.5 667.5 1650 614.5 Q 1698.7 566.2 1725 495.5 L 1737 454.5 L 1743 421.5 L 1744 404.5 L 1745 403.5 L 1745 391.5 L 1746 390.5 L 1746 338.5 L 1745 337.5 L 1745 325.5 L 1744 324.5 L 1742 301.5 L 1736 270.5 L 1727 239.5 L 1716 211.5 Q 1686.1 145.9 1635.5 101 Q 1585.1 55.9 1515.5 30 L 1481.5 19 L 1438.5 9 L 1414.5 6 L 1413.5 5 L 1406.5 5 L 1405.5 4 L 1387.5 3 L 1386.5 2 L 1354.5 1 L 1354.5 0 Z M 1770 17 L 1770 713 L 2057 713 L 2058 504 L 2219 711 L 2222 713 L 2557 713 L 2545 697 L 2272 368 L 2540 19 L 2540 17 L 2220 17 L 2059 233 L 2057 234 L 2057 17 L 1770 17 Z M 2573 17 L 2573 713 L 3202 713 L 3202 492 L 2842 492 L 2842 445 L 2843 444 L 3190 444 L 3190 277 L 2842 277 L 2842 230 L 2843 229 L 3198 229 L 3198 17 L 2573 17 Z M 3424 17 L 3388 142 L 3376 179 L 3374 189 L 3365 216 L 3363 226 L 3351 263 L 3349 273 L 3340 300 L 3338 310 L 3315 384 L 3313 394 L 3290 468 L 3288 478 L 3265 552 L 3263 562 L 3240 636 L 3238 646 L 3218 710 L 3219 713 L 3508 713 L 3511 704 L 3511 700 L 3518 674 L 3518 670 L 3531 615 L 3533 613 L 3716 613 L 3739 711 L 3740 713 L 4030 713 L 3823 19 L 3823 17 L 3424 17 Z " /><path fill="rgb(0,0,0)" stroke="rgb(0,0,0)" stroke-width="1" opacity="0" d="M 4647.5 0 L 7685.5 0 L 7686 0.5 L 7686 420.5 L 7685 420.5 L 7685 409.5 L 7684 408.5 L 7684 401.5 L 7683 400.5 L 7680 377.5 Q 7673.4 347.6 7662 322.5 Q 7638.4 271.1 7598.5 236 Q 7552.4 194.6 7485.5 174 L 7454.5 166 L 7425.5 161 L 7409.5 160 L 7408.5 159 L 7397.5 159 L 7396.5 158 L 7350.5 157 L 7349.5 158 L 7329.5 158 L 7328.5 159 L 7308.5 160 L 7307.5 161 L 7300.5 161 L 7271.5 166 L 7240.5 174 L 7207.5 186 Q 7146.8 211.8 7106 257.5 Q 7075.9 290.9 7058 336.5 L 7049 364.5 L 7044 387.5 L 7042 407.5 L 7041 408.5 L 7040 431 L 7053.5 431 L 7054.5 432 L 7067.5 432 L 7068.5 433 L 7081.5 433 L 7082.5 434 L 7095.5 434 L 7096.5 435 L 7109.5 435 L 7110.5 436 L 7123.5 436 L 7124.5 437 L 7137.5 437 L 7138.5 438 L 7151.5 438 L 7152.5 439 L 7165.5 439 L 7166.5 440 L 7179.5 440 L 7180.5 441 L 7193.5 441 L 7194.5 442 L 7207.5 442 L 7208.5 443 L 7221.5 443 L 7222.5 444 L 7236.5 444 L 7237.5 445 L 7250.5 445 L 7251.5 446 L 7264.5 446 L 7265.5 447 L 7273 447 L 7275 426.5 L 7282 404.5 Q 7290.7 386.7 7305.5 375 L 7326.5 363 L 7339.5 359 L 7351.5 358 L 7352.5 357 L 7374.5 357 L 7375.5 358 L 7387.5 359 L 7403.5 364 Q 7421.3 371.2 7433 384.5 Q 7441.6 393.9 7447 406.5 L 7452 422.5 L 7454 444.5 L 7453 445.5 L 7453 456.5 L 7451 466.5 L 7447 478.5 Q 7438.6 498.5 7422.5 511 Q 7409.7 520.7 7392.5 526 L 7378.5 529 L 7358.5 530 L 7357.5 529 L 7341.5 528 L 7319.5 521 Q 7301.7 512.3 7290 497.5 L 7279 478.5 L 7273 454 L 7040.5 454 L 7040 454.5 L 7040 466.5 L 7041 467.5 L 7041 477.5 L 7042 478.5 L 7043 492.5 L 7047 513.5 L 7056 544.5 L 7065 566.5 Q 7086.3 611.7 7120.5 644 Q 7159.3 681.2 7213.5 703 L 7242.5 713 L 7269.5 720 L 7290.5 724 L 7303.5 725 L 7304.5 726 L 7337 728.5 L 6372.5 729 L 6372.5 728 L 6385.5 728 L 6386.5 727 L 6404.5 726 L 6450.5 718 L 6488.5 708 L 6520 697 L 6519 694.5 L 6519 688.5 L 6517 681.5 L 6517 675.5 L 6514 662.5 L 6514 656.5 L 6512 649.5 L 6512 643.5 L 6509 630.5 L 6509 624.5 L 6507 617.5 L 6507 611.5 L 6504 598.5 L 6504 592.5 L 6502 585.5 L 6502 579.5 L 6501 578.5 L 6495 537 L 6428.5 537 L 6427.5 536 L 6415.5 536 L 6414.5 535 L 6407.5 535 L 6390.5 532 L 6369.5 526 L 6354.5 519 Q 6342 512 6333 501.5 Q 6324.4 491.6 6320 477.5 L 6317 461.5 L 6317 444.5 L 6318 443.5 L 6319 432.5 L 6323 420.5 Q 6329.8 405.3 6341.5 395 Q 6373.5 367.5 6436.5 371 L 6437.5 372 L 6445.5 372 L 6446.5 373 L 6457.5 374 L 6479.5 381 Q 6496.8 388.7 6508 402.5 L 6520 423.5 L 6524 436.5 L 6526 447.5 L 6526 455.5 L 6527 456.5 L 6527 713 L 6754.5 713 L 6755 712.5 L 6755 17 L 6527 17 L 6527 206.5 L 6524.5 205 Q 6505 191.5 6481.5 182 L 6459.5 174 L 6429.5 166 L 6407.5 162 L 6400.5 162 L 6391.5 160 L 6381.5 160 L 6380.5 159 L 6332.5 158 L 6331.5 159 L 6309.5 160 L 6281.5 165 Q 6256.1 171.1 6234.5 181 Q 6187.2 203.2 6155 240.5 Q 6119.5 281 6101 338.5 L 6093 368.5 L 6089 389.5 L 6088 402.5 L 6087 403.5 L 6086 423.5 L 6085 424.5 L 6084 465.5 L 6085 466.5 L 6085 486.5 L 6086 487.5 L 6086 497.5 L 6087 498.5 L 6089 520.5 L 6095 548.5 L 6107 584.5 Q 6128.7 636.8 6168.5 671 Q 6197.4 696.1 6236.5 711 L 6273.5 722 L 6302.5 727 L 6324 728.5 L 5667.5 729 L 5667.5 728 L 5676.5 728 L 5677.5 727 L 5684.5 727 L 5707.5 723 L 5735.5 716 L 5759.5 708 L 5801.5 689 L 5825 673.5 L 5824 659.5 L 5823 658.5 L 5823 648.5 L 5822 647.5 L 5822 637.5 L 5821 636.5 L 5821 626.5 L 5820 625.5 L 5820 615.5 L 5819 614.5 L 5819 604.5 L 5818 603.5 L 5818 593.5 L 5817 592.5 L 5817 582.5 L 5816 581.5 L 5816 571.5 L 5815 570.5 L 5815 560.5 L 5814 559.5 L 5814 549.5 L 5813 548.5 L 5813 538.5 L 5812 537.5 L 5812 527.5 L 5811 526.5 L 5811 516.5 L 5810 515.5 L 5810 505.5 L 5809 504.5 L 5809 494.5 L 5808 491 L 5772.5 508 L 5757.5 513 L 5746.5 515 L 5737.5 515 L 5728.5 513 L 5720 507.5 L 5715 498.5 L 5713 487.5 L 5713 174 L 5485 174 L 5485 561.5 L 5486 562.5 L 5487 584.5 L 5488 585.5 L 5488 592.5 L 5489 593.5 L 5491 610.5 L 5501 645.5 Q 5513.5 678.5 5538.5 699 Q 5557.7 714.3 5584.5 722 L 5608.5 727 L 5628 728.5 L 4670.5 729 L 4670.5 728 L 4705.5 727 L 4706.5 726 L 4717.5 726 L 4718.5 725 L 4727.5 725 L 4728.5 724 L 4736.5 724 L 4737.5 723 L 4758.5 721 L 4795.5 714 L 4838.5 702 L 4864.5 692 L 4900.5 673 Q 4927 656.5 4947 633.5 Q 4972.5 604.5 4985 562.5 L 4990 540.5 L 4990 534.5 L 4992 526.5 L 4992 517.5 L 4993 516.5 L 4993 471.5 L 4992 470.5 L 4992 461.5 L 4991 460.5 L 4991 453.5 L 4988 437.5 L 4977 404.5 Q 4961.3 370.7 4934.5 348 Q 4909.2 326.8 4876.5 313 L 4840.5 300 L 4796.5 289 L 4791.5 289 L 4780.5 286 L 4768.5 285 L 4754.5 282 L 4730.5 280 L 4729.5 279 L 4720.5 279 L 4719.5 278 L 4709.5 278 L 4708.5 277 L 4696.5 277 L 4695.5 276 L 4660.5 275 L 4659.5 274 L 4628.5 274 L 4627.5 273 L 4566.5 273 L 4565.5 272 L 4554.5 272 L 4533.5 267 L 4524 259.5 Q 4520 255.1 4521 245.5 L 4526.5 236 L 4540.5 229 L 4563.5 225 L 4575.5 225 L 4576.5 224 L 4659.5 224 L 4660.5 225 L 4682.5 225 L 4683.5 226 L 4724.5 228 L 4725.5 229 L 4744.5 230 L 4745.5 231 L 4753.5 231 L 4754.5 232 L 4790.5 236 L 4791.5 237 L 4820.5 241 L 4831.5 244 L 4836.5 244 L 4878.5 253 L 4943 270 L 4967 58 L 4906.5 38 L 4863.5 27 L 4820.5 18 L 4815.5 18 L 4791.5 13 L 4764.5 10 L 4763.5 9 L 4739.5 7 L 4738.5 6 L 4706.5 4 L 4705.5 3 L 4692.5 3 L 4691.5 2 L 4674.5 2 L 4673.5 1 L 4647.5 1 L 4647.5 0 Z M 5105 15 L 5105 174 L 5017 174 L 5017 361 L 5105 361 L 5105 532 L 5106 533 L 5106 547 L 5107 548 L 5108 565 L 5115 600 L 5123 623 Q 5132 643 5146 659 Q 5163 677 5187 688 L 5210 697 L 5248 706 L 5268 708 L 5269 709 L 5278 709 L 5279 710 L 5289 710 L 5290 711 L 5305 711 L 5306 712 L 5336 712 L 5337 713 L 5453 713 L 5454 667 L 5455 666 L 5455 643 L 5456 642 L 5456 620 L 5457 619 L 5457 596 L 5458 595 L 5458 573 L 5459 572 L 5459 549 L 5460 548 L 5460 526 L 5461 525 L 5461 517 L 5368 517 L 5367 516 L 5356 515 L 5345 510 Q 5339 505 5336 498 L 5334 489 L 5334 479 L 5333 478 L 5333 361 L 5444 361 L 5444 175 L 5444 174 L 5333 174 L 5333 15 L 5105 15 Z M 5832 174 L 5832 713 L 6061 713 L 6061 174 L 5832 174 Z M 6788 174 L 6788 307 L 6792 308 L 6819 309 L 6820 310 L 6874 313 L 6875 314 L 6929 317 L 6930 318 L 6984 321 L 6985 322 L 7011 323 L 7016 324 L 7016 174 L 6788 174 Z M 6788 339 L 6788 713 L 7016 713 L 7016 339 L 6788 339 Z " /><path fill="rgb(0,0,0)" stroke="rgb(0,0,0)" stroke-width="1" opacity="0" d="M 3623.5 220 L 3669 414 L 3578.5 414 L 3578 412.5 L 3623.5 220 Z " /><path fill="rgb(0,0,0)" stroke="rgb(0,0,0)" stroke-width="1" opacity="0" d="M 7685.5 465 L 7686 729 L 7389 728.5 L 7421.5 726 L 7422.5 725 L 7435.5 724 L 7456.5 720 L 7483.5 713 L 7512.5 703 Q 7572.8 678.8 7614 635.5 Q 7644.9 603.4 7664 559.5 L 7672 538.5 L 7678 517.5 L 7683 492.5 L 7685.5 465 Z " /><path fill="rgb(0,0,0)" stroke="rgb(0,0,0)" stroke-width="1" opacity="1" d="M 1310.5 0 L 1373.5 1 L 1374.5 2 L 1386.5 2 L 1387.5 3 L 1396.5 3 L 1397.5 4 L 1420.5 6 L 1448.5 11 L 1481.5 19 L 1515.5 30 Q 1603.7 62.8 1661 126.5 Q 1705.8 175.2 1729 245.5 L 1738 279.5 L 1743 308.5 L 1743 315.5 L 1744 316.5 L 1745 337.5 L 1746 338.5 L 1746 390.5 L 1745 391.5 L 1745 403.5 L 1744 404.5 L 1743 421.5 L 1737 454.5 L 1730 480.5 L 1717 515.5 Q 1690.7 574.7 1647.5 617 Q 1585 679 1489.5 708 L 1454.5 717 L 1422.5 723 L 1400.5 725 L 1399.5 726 L 1378.5 727 L 1377.5 728 L 1362.5 728 L 1361.5 729 L 1303.5 729 L 1302.5 728 L 1286.5 728 L 1285.5 727 L 1274.5 727 L 1273.5 726 L 1248.5 724 L 1209.5 717 L 1171.5 707 L 1130.5 692 Q 1055 660 1004 603.5 Q 963.4 559.1 940 497.5 L 931 469.5 L 923 433.5 L 921 413.5 L 920 412.5 L 920 404.5 L 919 403.5 L 918 380 L 1208.5 380 L 1210 381.5 L 1212 396.5 L 1222 421.5 Q 1232.6 439.9 1248.5 453 Q 1266.3 467.7 1291.5 475 L 1320.5 480 L 1343.5 480 L 1344.5 479 L 1352.5 479 L 1368.5 476 L 1386.5 470 Q 1409.1 460.1 1425 443.5 Q 1440.5 427.5 1449 404.5 L 1455 380.5 L 1456 357.5 L 1455 356.5 L 1455 347.5 L 1453 336.5 L 1446 315.5 Q 1435 291.5 1415.5 276 Q 1398.8 262.2 1375.5 255 L 1351.5 250 L 1325.5 249 L 1324.5 250 L 1313.5 250 L 1296.5 253 L 1273.5 261 Q 1253.3 270.8 1239 286.5 Q 1225.7 301.2 1218 321.5 L 1211 347.5 L 1209 373 Q 1205.4 370.7 1196.5 372 L 1195.5 371 L 1160.5 369 L 1159.5 368 L 1149.5 368 L 1148.5 367 L 1125.5 366 L 1124.5 365 L 1114.5 365 L 1113.5 364 L 1102.5 364 L 1101.5 363 L 1090.5 363 L 1089.5 362 L 1079.5 362 L 1078.5 361 L 1067.5 361 L 1066.5 360 L 1055.5 360 L 1054.5 359 L 1043.5 359 L 1042.5 358 L 1032.5 358 L 1031.5 357 L 1020.5 357 L 1019.5 356 L 1008.5 356 L 1007.5 355 L 997.5 355 L 996.5 354 L 985.5 354 L 984.5 353 L 973.5 353 L 972.5 352 L 962.5 352 L 961.5 351 L 950.5 351 L 949.5 350 L 938.5 350 L 937.5 349 L 918 348 L 921 308.5 L 927 275.5 L 934 249.5 L 947 214.5 Q 975.7 149.7 1024.5 105 Q 1074.3 58.8 1143.5 32 L 1172.5 22 L 1220.5 10 L 1250.5 6 L 1251.5 5 L 1257.5 5 L 1258.5 4 L 1276.5 3 L 1277.5 2 L 1289.5 2 L 1290.5 1 L 1309.5 1 L 1310.5 0 Z " /><path fill="rgb(0,0,0)" stroke="rgb(0,0,0)" stroke-width="1" opacity="1" d="M 4586.5 0 L 4646.5 0 L 4647.5 1 L 4691.5 2 L 4692.5 3 L 4705.5 3 L 4706.5 4 L 4738.5 6 L 4739.5 7 L 4747.5 7 L 4748.5 8 L 4755.5 8 L 4756.5 9 L 4763.5 9 L 4764.5 10 L 4791.5 13 L 4850.5 24 L 4895.5 35 L 4923.5 43 L 4967 58 L 4943 270 L 4914.5 262 L 4860.5 249 L 4820.5 241 L 4815.5 241 L 4790.5 236 L 4784.5 236 L 4783.5 235 L 4777.5 235 L 4776.5 234 L 4770.5 234 L 4769.5 233 L 4745.5 231 L 4744.5 230 L 4735.5 230 L 4734.5 229 L 4725.5 229 L 4724.5 228 L 4713.5 228 L 4712.5 227 L 4683.5 226 L 4682.5 225 L 4660.5 225 L 4659.5 224 L 4576.5 224 L 4575.5 225 L 4554.5 226 L 4540.5 229 Q 4530 231.5 4524 238.5 Q 4520 242.9 4521 252.5 Q 4522.8 260.1 4528.5 264 L 4533.5 267 L 4547.5 271 L 4565.5 272 L 4566.5 273 L 4659.5 274 L 4660.5 275 L 4679.5 275 L 4680.5 276 L 4695.5 276 L 4696.5 277 L 4729.5 279 L 4730.5 280 L 4738.5 280 L 4739.5 281 L 4746.5 281 L 4747.5 282 L 4774.5 285 L 4814.5 293 L 4861.5 307 L 4897.5 323 Q 4930 340 4953 366.5 Q 4976.5 393.5 4987 433.5 L 4991 453.5 L 4992 470.5 L 4993 471.5 L 4993 516.5 L 4992 517.5 L 4992 526.5 L 4991 527.5 L 4988 550.5 L 4976 587.5 Q 4958.4 626.9 4927.5 653 Q 4900.1 676.6 4864.5 692 L 4832.5 704 L 4795.5 714 L 4758.5 721 L 4737.5 723 L 4736.5 724 L 4728.5 724 L 4727.5 725 L 4718.5 725 L 4717.5 726 L 4706.5 726 L 4705.5 727 L 4670.5 728 L 4669.5 729 L 4583.5 729 L 4582.5 728 L 4555.5 728 L 4554.5 727 L 4535.5 727 L 4534.5 726 L 4519.5 726 L 4518.5 725 L 4481.5 723 L 4480.5 722 L 4471.5 722 L 4470.5 721 L 4461.5 721 L 4460.5 720 L 4452.5 720 L 4451.5 719 L 4420.5 716 L 4419.5 715 L 4413.5 715 L 4406.5 713 L 4400.5 713 L 4399.5 712 L 4370.5 708 L 4326.5 699 L 4282.5 688 L 4239.5 675 L 4207 663 L 4208 659.5 L 4209 642.5 L 4211 633.5 L 4213 607.5 L 4215 598.5 L 4217 572.5 L 4219 563.5 L 4222 528.5 L 4224 519.5 L 4226 493.5 L 4227 492.5 L 4230 458.5 L 4232.5 444 L 4280.5 460 L 4337.5 475 L 4380.5 484 L 4385.5 484 L 4391.5 486 L 4415.5 489 L 4422.5 491 L 4429.5 491 L 4430.5 492 L 4453.5 494 L 4454.5 495 L 4462.5 495 L 4463.5 496 L 4496.5 498 L 4497.5 499 L 4511.5 499 L 4512.5 500 L 4532.5 500 L 4533.5 501 L 4625.5 501 L 4626.5 500 L 4637.5 500 L 4638.5 499 L 4651.5 498 L 4664.5 494 L 4671 490 L 4674 485.5 L 4676 476.5 L 4674 467.5 L 4669.5 462 L 4656.5 456 L 4646.5 454 L 4639.5 454 L 4638.5 453 L 4624.5 453 L 4623.5 452 L 4558.5 452 L 4557.5 451 L 4531.5 451 L 4530.5 450 L 4499.5 449 L 4498.5 448 L 4487.5 448 L 4486.5 447 L 4476.5 447 L 4475.5 446 L 4451.5 444 L 4394.5 434 L 4360.5 425 L 4313.5 407 Q 4276.1 389.4 4249 361.5 Q 4224.6 336.4 4212 299.5 L 4204 264.5 L 4203 241.5 L 4202 240.5 L 4202 220.5 L 4203 219.5 L 4203 207.5 L 4204 206.5 L 4204 199.5 L 4207 182.5 L 4218 149.5 Q 4233.7 115.7 4259.5 92 Q 4282.1 71.1 4310.5 56 L 4342.5 41 L 4390.5 25 L 4438.5 14 L 4468.5 10 L 4469.5 9 L 4475.5 9 L 4476.5 8 L 4501.5 6 L 4502.5 5 L 4512.5 5 L 4513.5 4 L 4524.5 4 L 4525.5 3 L 4556.5 2 L 4557.5 1 L 4585.5 1 L 4586.5 0 Z " /><path fill="rgb(0,0,0)" stroke="rgb(0,0,0)" stroke-width="1" opacity="1" d="M 5105 15 L 5333 15 L 5333 174 L 5443.5 174 L 5444 174.5 L 5444 361 L 5333 361 L 5333 477.5 L 5334 478.5 L 5334 488.5 L 5336 497.5 Q 5338.5 505.5 5344.5 510 L 5355.5 515 L 5366.5 516 L 5367.5 517 L 5461 517 L 5461 524.5 L 5460 525.5 L 5460 547.5 L 5459 548.5 L 5459 571.5 L 5458 572.5 L 5458 594.5 L 5457 595.5 L 5457 618.5 L 5456 619.5 L 5456 641.5 L 5455 642.5 L 5455 665.5 L 5454 666.5 L 5453 713 L 5336.5 713 L 5335.5 712 L 5305.5 712 L 5304.5 711 L 5289.5 711 L 5288.5 710 L 5278.5 710 L 5277.5 709 L 5268.5 709 L 5267.5 708 L 5247.5 706 L 5209.5 697 L 5186.5 688 Q 5162.8 676.8 5146 658.5 Q 5131.9 643.1 5123 622.5 L 5115 599.5 L 5108 564.5 L 5107 547.5 L 5106 546.5 L 5106 532.5 L 5105 531.5 L 5105 361 L 5017 361 L 5017 174 L 5105 174 L 5105 15 Z " /><path fill="rgb(0,0,0)" stroke="rgb(0,0,0)" stroke-width="1" opacity="1" d="M 0 17 L 314.5 17 L 316 18.5 L 446.5 375 L 452 363.5 L 538 126.5 L 572 36.5 L 578 17 L 894 17 L 894 713 L 637 713 L 637 355.5 L 636 355.5 L 526 713 L 368.5 713 L 367 711.5 L 257.5 355 L 257 713 L 0 713 L 0 17 Z " /><path fill="rgb(0,0,0)" stroke="rgb(0,0,0)" stroke-width="1" opacity="1" d="M 1770 17 L 2057 17 L 2057 233.5 L 2059 232.5 L 2220 17 L 2539.5 17 L 2540 18.5 L 2272 367.5 L 2545 696.5 L 2557 713 L 2221.5 713 L 2219 710.5 L 2057.5 504 L 2057 713 L 1770 713 L 1770 17 Z " /><path fill="rgb(0,0,0)" stroke="rgb(0,0,0)" stroke-width="1" opacity="1" d="M 2573 17 L 3198 17 L 3198 229 L 2842.5 229 L 2842 229.5 L 2842 277 L 3190 277 L 3190 444 L 2842.5 444 L 2842 444.5 L 2842 492 L 3202 492 L 3202 713 L 2573 713 L 2573 17 Z " /><path fill="rgb(0,0,0)" stroke="rgb(0,0,0)" stroke-width="1" opacity="1" d="M 3424 17 L 3822.5 17 L 3823 18.5 L 4030 713 L 3739.5 713 L 3739 710.5 L 3716 613 L 3532.5 613 L 3531 614.5 L 3518 669.5 L 3518 673.5 L 3511 699.5 L 3511 703.5 L 3507.5 713 L 3218.5 713 L 3218 709.5 L 3238 645.5 L 3240 635.5 L 3263 561.5 L 3265 551.5 L 3288 477.5 L 3290 467.5 L 3313 393.5 L 3315 383.5 L 3338 309.5 L 3340 299.5 L 3349 272.5 L 3351 262.5 L 3363 225.5 L 3365 215.5 L 3374 188.5 L 3376 178.5 L 3388 141.5 L 3424 17 Z M 3624 220 L 3578 413 L 3579 414 L 3669 414 L 3624 220 Z " /><path fill="rgb(0,0,0)" stroke="rgb(0,0,0)" stroke-width="1" opacity="1" d="M 6527 17 L 6754.5 17 L 6755 17.5 L 6755 713 L 6527 713 L 6527 456.5 L 6526 455.5 L 6526 447.5 L 6524 436.5 L 6517 416.5 Q 6509.6 401.9 6497.5 392 Q 6481.5 379 6457.5 374 L 6446.5 373 L 6445.5 372 L 6437.5 372 L 6436.5 371 L 6407.5 371 L 6406.5 372 L 6397.5 372 L 6386.5 374 L 6366.5 380 Q 6347.5 387.5 6335 401.5 Q 6325 412.5 6320 428.5 L 6317 444.5 L 6317 461.5 L 6320 477.5 L 6326 491.5 Q 6332.3 502.3 6341.5 510 L 6364.5 524 L 6378.5 529 L 6400.5 534 L 6414.5 535 L 6415.5 536 L 6427.5 536 L 6428.5 537 L 6495 537 L 6501 578.5 L 6502 579.5 L 6502 585.5 L 6504 592.5 L 6504 598.5 L 6507 611.5 L 6507 617.5 L 6509 624.5 L 6509 630.5 L 6512 643.5 L 6512 649.5 L 6514 656.5 L 6514 662.5 L 6517 675.5 L 6517 681.5 L 6519 688.5 L 6519 694.5 L 6520 697 L 6474.5 712 L 6418.5 724 L 6396.5 726 L 6395.5 727 L 6386.5 727 L 6385.5 728 L 6372.5 728 L 6371.5 729 L 6324.5 729 L 6323.5 728 L 6302.5 727 L 6273.5 722 L 6257.5 718 L 6226.5 707 Q 6178.2 685.8 6146 648.5 Q 6115.1 612.9 6099 562.5 L 6093 540.5 L 6087 506.5 L 6086 487.5 L 6085 486.5 L 6084 445.5 L 6085 444.5 L 6085 424.5 L 6086 423.5 L 6087 403.5 L 6088 402.5 L 6089 389.5 L 6093 368.5 L 6101 338.5 L 6111 311.5 Q 6134.9 255.4 6177.5 218 Q 6213.8 185.3 6266.5 169 L 6290.5 163 L 6308.5 161 L 6309.5 160 L 6331.5 159 L 6332.5 158 L 6364.5 158 L 6365.5 159 L 6391.5 160 L 6392.5 161 L 6419.5 164 L 6459.5 174 Q 6497.6 185.9 6526.5 207 L 6527 17 Z " /><path fill="rgb(0,0,0)" stroke="rgb(0,0,0)" stroke-width="1" opacity="1" d="M 7350.5 157 L 7396.5 158 L 7397.5 159 L 7408.5 159 L 7409.5 160 L 7432.5 162 L 7467.5 169 L 7500.5 179 Q 7573.4 205.1 7620 257.5 Q 7655.9 297.1 7674 354.5 L 7680 377.5 L 7683 400.5 L 7684 401.5 L 7684 408.5 L 7685 409.5 L 7685 420.5 L 7686 421.5 L 7686 464.5 L 7685 465.5 L 7685 476.5 L 7684 477.5 L 7683 492.5 L 7678 517.5 L 7672 538.5 L 7660 568.5 Q 7638.7 612.2 7605.5 644 Q 7556.9 690.9 7483.5 713 L 7456.5 720 L 7435.5 724 L 7414.5 726 L 7413.5 727 L 7389.5 728 L 7388.5 729 L 7337.5 729 L 7336.5 728 L 7323.5 728 L 7322.5 727 L 7304.5 726 L 7303.5 725 L 7290.5 724 L 7269.5 720 L 7242.5 713 L 7213.5 703 Q 7153.2 678.8 7112 635.5 Q 7078.6 600.9 7059 552.5 L 7050 525.5 L 7045 504.5 L 7043 486.5 L 7042 485.5 L 7042 478.5 L 7041 477.5 L 7040 454 L 7272.5 454 L 7273 455.5 L 7279 478.5 L 7285 490.5 L 7303.5 511 Q 7326 530 7367.5 530 L 7368.5 529 L 7384.5 528 L 7401.5 523 Q 7422.9 514.4 7436 497.5 Q 7446.2 484.7 7451 466.5 L 7453 456.5 L 7454 440.5 L 7453 439.5 L 7452 422.5 L 7447 406.5 Q 7439.9 390.1 7427.5 379 Q 7413.2 365.8 7391.5 360 L 7374.5 357 L 7352.5 357 L 7332.5 361 L 7312.5 370 L 7292 388.5 Q 7281.8 400.8 7277 418.5 L 7274 432.5 Q 7274.8 441.8 7273 447 L 7265.5 447 L 7264.5 446 L 7251.5 446 L 7250.5 445 L 7237.5 445 L 7236.5 444 L 7222.5 444 L 7221.5 443 L 7208.5 443 L 7207.5 442 L 7194.5 442 L 7193.5 441 L 7180.5 441 L 7179.5 440 L 7166.5 440 L 7165.5 439 L 7152.5 439 L 7151.5 438 L 7138.5 438 L 7137.5 437 L 7124.5 437 L 7123.5 436 L 7110.5 436 L 7109.5 435 L 7096.5 435 L 7095.5 434 L 7082.5 434 L 7081.5 433 L 7068.5 433 L 7067.5 432 L 7054.5 432 L 7053.5 431 L 7040 431 L 7041 408.5 L 7042 407.5 L 7042 400.5 L 7047 372.5 Q 7053.2 346.7 7063 324.5 Q 7086.8 271.8 7127.5 236 Q 7168.4 199.4 7225.5 179 L 7258.5 169 L 7287.5 163 L 7307.5 161 L 7308.5 160 L 7316.5 160 L 7317.5 159 L 7349.5 158 L 7350.5 157 Z " /><path fill="rgb(0,0,0)" stroke="rgb(0,0,0)" stroke-width="1" opacity="1" d="M 5485 174 L 5713 174 L 5713 487.5 L 5715 498.5 L 5722.5 510 L 5731.5 514 L 5746.5 515 L 5757.5 513 L 5772.5 508 L 5808 491 L 5809 494.5 L 5809 504.5 L 5810 505.5 L 5810 515.5 L 5811 516.5 L 5811 526.5 L 5812 527.5 L 5812 537.5 L 5813 538.5 L 5813 548.5 L 5814 549.5 L 5814 559.5 L 5815 560.5 L 5815 570.5 L 5816 571.5 L 5816 581.5 L 5817 582.5 L 5817 592.5 L 5818 593.5 L 5818 603.5 L 5819 604.5 L 5819 614.5 L 5820 615.5 L 5820 625.5 L 5821 626.5 L 5821 636.5 L 5822 637.5 L 5822 647.5 L 5823 648.5 L 5823 658.5 L 5824 659.5 L 5825 673.5 Q 5805.6 688.6 5781.5 699 L 5735.5 716 L 5707.5 723 L 5684.5 727 L 5677.5 727 L 5676.5 728 L 5667.5 728 L 5666.5 729 L 5628.5 729 L 5627.5 728 L 5616.5 728 L 5615.5 727 L 5608.5 727 L 5592.5 724 L 5567.5 716 Q 5539.7 704.3 5522 682.5 Q 5504.6 660.9 5496 630.5 L 5489 599.5 L 5487 575.5 L 5486 574.5 L 5486 562.5 L 5485 561.5 L 5485 174 Z " /><path fill="rgb(0,0,0)" stroke="rgb(0,0,0)" stroke-width="1" opacity="1" d="M 5832 174 L 6061 174 L 6061 713 L 5832 713 L 5832 174 Z " /><path fill="rgb(0,0,0)" stroke="rgb(0,0,0)" stroke-width="1" opacity="1" d="M 6788 174 L 7016 174 L 7016 324 L 7010.5 323 L 6984.5 322 L 6983.5 321 L 6929.5 318 L 6928.5 317 L 6874.5 314 L 6873.5 313 L 6819.5 310 L 6818.5 309 L 6791.5 308 L 6788 307 L 6788 174 Z " /><path fill="rgb(0,0,0)" stroke="rgb(0,0,0)" stroke-width="1" opacity="1" d="M 6788 339 L 7016 339 L 7016 713 L 6788 713 L 6788 339 Z " /></svg>